<?xml version="1.0" encoding="UTF-8"?>
<svg xmlns="http://www.w3.org/2000/svg" xmlns:xlink="http://www.w3.org/1999/xlink" width="504pt" height="504pt" viewBox="0 0 504 504" version="1.1">
<g id="surface44">
<path style="fill-rule:nonzero;fill:rgb(100%,100%,100%);fill-opacity:1;stroke-width:0.708661;stroke-linecap:round;stroke-linejoin:round;stroke:rgb(100%,100%,100%);stroke-opacity:1;stroke-miterlimit:10;" d="M 361.71875 302.910156 C 361.71875 307.648438 354.609375 307.648438 354.609375 302.910156 C 354.609375 298.167969 361.71875 298.167969 361.71875 302.910156 "/>
<path style="fill-rule:nonzero;fill:rgb(100%,100%,100%);fill-opacity:1;stroke-width:0.708661;stroke-linecap:round;stroke-linejoin:round;stroke:rgb(100%,100%,100%);stroke-opacity:1;stroke-miterlimit:10;" d="M 102.457031 440.363281 C 102.457031 445.105469 95.34375 445.105469 95.34375 440.363281 C 95.34375 435.625 102.457031 435.625 102.457031 440.363281 "/>
<path style="fill-rule:nonzero;fill:rgb(100%,100%,100%);fill-opacity:1;stroke-width:0.708661;stroke-linecap:round;stroke-linejoin:round;stroke:rgb(100%,100%,100%);stroke-opacity:1;stroke-miterlimit:10;" d="M 210.40625 371.128906 C 210.40625 375.867188 203.296875 375.867188 203.296875 371.128906 C 203.296875 366.386719 210.40625 366.386719 210.40625 371.128906 "/>
<path style="fill-rule:nonzero;fill:rgb(100%,100%,100%);fill-opacity:1;stroke-width:0.708661;stroke-linecap:round;stroke-linejoin:round;stroke:rgb(100%,100%,100%);stroke-opacity:1;stroke-miterlimit:10;" d="M 241.027344 339.867188 C 241.027344 344.609375 233.917969 344.609375 233.917969 339.867188 C 233.917969 335.128906 241.027344 335.128906 241.027344 339.867188 "/>
<path style="fill-rule:nonzero;fill:rgb(100%,100%,100%);fill-opacity:1;stroke-width:0.708661;stroke-linecap:round;stroke-linejoin:round;stroke:rgb(100%,100%,100%);stroke-opacity:1;stroke-miterlimit:10;" d="M 116.3125 359.925781 C 116.3125 364.667969 109.203125 364.667969 109.203125 359.925781 C 109.203125 355.1875 116.3125 355.1875 116.3125 359.925781 "/>
<path style="fill-rule:nonzero;fill:rgb(100%,100%,100%);fill-opacity:1;stroke-width:0.708661;stroke-linecap:round;stroke-linejoin:round;stroke:rgb(100%,100%,100%);stroke-opacity:1;stroke-miterlimit:10;" d="M 59.542969 386.398438 C 59.542969 391.140625 52.433594 391.140625 52.433594 386.398438 C 52.433594 381.660156 59.542969 381.660156 59.542969 386.398438 "/>
<path style="fill-rule:nonzero;fill:rgb(100%,100%,100%);fill-opacity:1;stroke-width:0.708661;stroke-linecap:round;stroke-linejoin:round;stroke:rgb(100%,100%,100%);stroke-opacity:1;stroke-miterlimit:10;" d="M 123.910156 389.453125 C 123.910156 394.195312 116.800781 394.195312 116.800781 389.453125 C 116.800781 384.714844 123.910156 384.714844 123.910156 389.453125 "/>
<path style="fill-rule:nonzero;fill:rgb(100%,100%,100%);fill-opacity:1;stroke-width:0.708661;stroke-linecap:round;stroke-linejoin:round;stroke:rgb(100%,100%,100%);stroke-opacity:1;stroke-miterlimit:10;" d="M 330.652344 360.4375 C 330.652344 365.175781 323.542969 365.175781 323.542969 360.4375 C 323.542969 355.695312 330.652344 355.695312 330.652344 360.4375 "/>
<path style="fill-rule:nonzero;fill:rgb(100%,100%,100%);fill-opacity:1;stroke-width:0.708661;stroke-linecap:round;stroke-linejoin:round;stroke:rgb(100%,100%,100%);stroke-opacity:1;stroke-miterlimit:10;" d="M 84.574219 427.128906 C 84.574219 431.867188 77.464844 431.867188 77.464844 427.128906 C 77.464844 422.386719 84.574219 422.386719 84.574219 427.128906 "/>
<path style="fill-rule:nonzero;fill:rgb(100%,100%,100%);fill-opacity:1;stroke-width:0.708661;stroke-linecap:round;stroke-linejoin:round;stroke:rgb(100%,100%,100%);stroke-opacity:1;stroke-miterlimit:10;" d="M 114.078125 454.617188 C 114.078125 459.359375 106.96875 459.359375 106.96875 454.617188 C 106.96875 449.878906 114.078125 449.878906 114.078125 454.617188 "/>
<path style="fill-rule:nonzero;fill:rgb(100%,100%,100%);fill-opacity:1;stroke-width:0.708661;stroke-linecap:round;stroke-linejoin:round;stroke:rgb(100%,100%,100%);stroke-opacity:1;stroke-miterlimit:10;" d="M 453.355469 223.003906 C 453.355469 227.746094 446.246094 227.746094 446.246094 223.003906 C 446.246094 218.265625 453.355469 218.265625 453.355469 223.003906 "/>
<path style="fill-rule:nonzero;fill:rgb(100%,100%,100%);fill-opacity:1;stroke-width:0.708661;stroke-linecap:round;stroke-linejoin:round;stroke:rgb(100%,100%,100%);stroke-opacity:1;stroke-miterlimit:10;" d="M 365.519531 259.128906 C 365.519531 263.867188 358.410156 263.867188 358.410156 259.128906 C 358.410156 254.386719 365.519531 254.386719 365.519531 259.128906 "/>
<path style="fill-rule:nonzero;fill:rgb(100%,100%,100%);fill-opacity:1;stroke-width:0.708661;stroke-linecap:round;stroke-linejoin:round;stroke:rgb(100%,100%,100%);stroke-opacity:1;stroke-miterlimit:10;" d="M 307.855469 313.089844 C 307.855469 317.832031 300.746094 317.832031 300.746094 313.089844 C 300.746094 308.351562 307.855469 308.351562 307.855469 313.089844 "/>
<path style="fill-rule:nonzero;fill:rgb(100%,100%,100%);fill-opacity:1;stroke-width:0.708661;stroke-linecap:round;stroke-linejoin:round;stroke:rgb(100%,100%,100%);stroke-opacity:1;stroke-miterlimit:10;" d="M 241.027344 271.34375 C 241.027344 276.085938 233.917969 276.085938 233.917969 271.34375 C 233.917969 266.605469 241.027344 266.605469 241.027344 271.34375 "/>
<path style="fill-rule:nonzero;fill:rgb(100%,100%,100%);fill-opacity:1;stroke-width:0.708661;stroke-linecap:round;stroke-linejoin:round;stroke:rgb(100%,100%,100%);stroke-opacity:1;stroke-miterlimit:10;" d="M 222.253906 304.4375 C 222.253906 309.175781 215.144531 309.175781 215.144531 304.4375 C 215.144531 299.695312 222.253906 299.695312 222.253906 304.4375 "/>
<path style="fill-rule:nonzero;fill:rgb(100%,100%,100%);fill-opacity:1;stroke-width:0.708661;stroke-linecap:round;stroke-linejoin:round;stroke:rgb(100%,100%,100%);stroke-opacity:1;stroke-miterlimit:10;" d="M 59.542969 385.382812 C 59.542969 390.121094 52.433594 390.121094 52.433594 385.382812 C 52.433594 380.640625 59.542969 380.640625 59.542969 385.382812 "/>
<path style="fill-rule:nonzero;fill:rgb(100%,100%,100%);fill-opacity:1;stroke-width:0.708661;stroke-linecap:round;stroke-linejoin:round;stroke:rgb(100%,100%,100%);stroke-opacity:1;stroke-miterlimit:10;" d="M 317.914062 269.816406 C 317.914062 274.558594 310.800781 274.558594 310.800781 269.816406 C 310.800781 265.078125 317.914062 265.078125 317.914062 269.816406 "/>
<path style="fill-rule:nonzero;fill:rgb(100%,100%,100%);fill-opacity:1;stroke-width:0.708661;stroke-linecap:round;stroke-linejoin:round;stroke:rgb(100%,100%,100%);stroke-opacity:1;stroke-miterlimit:10;" d="M 205.265625 280.9375 C 205.265625 285.679688 198.15625 285.679688 198.15625 280.9375 C 198.15625 276.199219 205.265625 276.199219 205.265625 280.9375 "/>
<path style="fill-rule:nonzero;fill:rgb(100%,100%,100%);fill-opacity:1;stroke-width:0.708661;stroke-linecap:round;stroke-linejoin:round;stroke:rgb(100%,100%,100%);stroke-opacity:1;stroke-miterlimit:10;" d="M 169.507812 401.671875 C 169.507812 406.414062 162.394531 406.414062 162.394531 401.671875 C 162.394531 396.933594 169.507812 396.933594 169.507812 401.671875 "/>
<path style="fill-rule:nonzero;fill:rgb(100%,100%,100%);fill-opacity:1;stroke-width:0.708661;stroke-linecap:round;stroke-linejoin:round;stroke:rgb(100%,100%,100%);stroke-opacity:1;stroke-miterlimit:10;" d="M 272.316406 213.816406 C 272.316406 218.558594 265.207031 218.558594 265.207031 213.816406 C 265.207031 209.078125 272.316406 209.078125 272.316406 213.816406 "/>
<path style="fill-rule:nonzero;fill:rgb(100%,100%,100%);fill-opacity:1;stroke-width:0.708661;stroke-linecap:round;stroke-linejoin:round;stroke:rgb(100%,100%,100%);stroke-opacity:1;stroke-miterlimit:10;" d="M 108.9375 383.039062 C 108.9375 387.78125 101.828125 387.78125 101.828125 383.039062 C 101.828125 378.300781 108.9375 378.300781 108.9375 383.039062 "/>
<path style="fill-rule:nonzero;fill:rgb(100%,100%,100%);fill-opacity:1;stroke-width:0.708661;stroke-linecap:round;stroke-linejoin:round;stroke:rgb(100%,100%,100%);stroke-opacity:1;stroke-miterlimit:10;" d="M 195.433594 385.382812 C 195.433594 390.121094 188.324219 390.121094 188.324219 385.382812 C 188.324219 380.640625 195.433594 380.640625 195.433594 385.382812 "/>
<path style="fill-rule:nonzero;fill:rgb(100%,100%,100%);fill-opacity:1;stroke-width:0.708661;stroke-linecap:round;stroke-linejoin:round;stroke:rgb(100%,100%,100%);stroke-opacity:1;stroke-miterlimit:10;" d="M 45.238281 454.617188 C 45.238281 459.359375 38.128906 459.359375 38.128906 454.617188 C 38.128906 449.878906 45.238281 449.878906 45.238281 454.617188 "/>
<path style="fill-rule:nonzero;fill:rgb(100%,100%,100%);fill-opacity:1;stroke-width:0.708661;stroke-linecap:round;stroke-linejoin:round;stroke:rgb(100%,100%,100%);stroke-opacity:1;stroke-miterlimit:10;" d="M 90.164062 379.375 C 90.164062 384.113281 83.050781 384.113281 83.050781 379.375 C 83.050781 374.632812 90.164062 374.632812 90.164062 379.375 "/>
<path style="fill-rule:nonzero;fill:rgb(100%,100%,100%);fill-opacity:1;stroke-width:0.708661;stroke-linecap:round;stroke-linejoin:round;stroke:rgb(100%,100%,100%);stroke-opacity:1;stroke-miterlimit:10;" d="M 300.925781 308.507812 C 300.925781 313.25 293.816406 313.25 293.816406 308.507812 C 293.816406 303.769531 300.925781 303.769531 300.925781 308.507812 "/>
<path style="fill-rule:nonzero;fill:rgb(100%,100%,100%);fill-opacity:1;stroke-width:0.708661;stroke-linecap:round;stroke-linejoin:round;stroke:rgb(100%,100%,100%);stroke-opacity:1;stroke-miterlimit:10;" d="M 67.140625 426.921875 C 67.140625 431.664062 60.03125 431.664062 60.03125 426.921875 C 60.03125 422.183594 67.140625 422.183594 67.140625 426.921875 "/>
<path style="fill-rule:nonzero;fill:rgb(100%,100%,100%);fill-opacity:1;stroke-width:0.708661;stroke-linecap:round;stroke-linejoin:round;stroke:rgb(100%,100%,100%);stroke-opacity:1;stroke-miterlimit:10;" d="M 121.230469 376.21875 C 121.230469 380.957031 114.121094 380.957031 114.121094 376.21875 C 114.121094 371.476562 121.230469 371.476562 121.230469 376.21875 "/>
<path style="fill-rule:nonzero;fill:rgb(100%,100%,100%);fill-opacity:1;stroke-width:0.708661;stroke-linecap:round;stroke-linejoin:round;stroke:rgb(100%,100%,100%);stroke-opacity:1;stroke-miterlimit:10;" d="M 236.332031 414.910156 C 236.332031 419.648438 229.222656 419.648438 229.222656 414.910156 C 229.222656 410.167969 236.332031 410.167969 236.332031 414.910156 "/>
<path style="fill-rule:nonzero;fill:rgb(100%,100%,100%);fill-opacity:1;stroke-width:0.708661;stroke-linecap:round;stroke-linejoin:round;stroke:rgb(100%,100%,100%);stroke-opacity:1;stroke-miterlimit:10;" d="M 141.34375 425.089844 C 141.34375 429.832031 134.234375 429.832031 134.234375 425.089844 C 134.234375 420.351562 141.34375 420.351562 141.34375 425.089844 "/>
<path style="fill-rule:nonzero;fill:rgb(100%,100%,100%);fill-opacity:1;stroke-width:0.708661;stroke-linecap:round;stroke-linejoin:round;stroke:rgb(100%,100%,100%);stroke-opacity:1;stroke-miterlimit:10;" d="M 190.515625 372.144531 C 190.515625 376.886719 183.40625 376.886719 183.40625 372.144531 C 183.40625 367.40625 190.515625 367.40625 190.515625 372.144531 "/>
<path style="fill-rule:nonzero;fill:rgb(100%,100%,100%);fill-opacity:1;stroke-width:0.708661;stroke-linecap:round;stroke-linejoin:round;stroke:rgb(100%,100%,100%);stroke-opacity:1;stroke-miterlimit:10;" d="M 127.039062 383.34375 C 127.039062 388.085938 119.929688 388.085938 119.929688 383.34375 C 119.929688 378.605469 127.039062 378.605469 127.039062 383.34375 "/>
<path style="fill-rule:nonzero;fill:rgb(100%,100%,100%);fill-opacity:1;stroke-width:0.708661;stroke-linecap:round;stroke-linejoin:round;stroke:rgb(100%,100%,100%);stroke-opacity:1;stroke-miterlimit:10;" d="M 215.101562 235.769531 C 215.101562 240.507812 207.992188 240.507812 207.992188 235.769531 C 207.992188 231.027344 215.101562 231.027344 215.101562 235.769531 "/>
<path style="fill-rule:nonzero;fill:rgb(100%,100%,100%);fill-opacity:1;stroke-width:0.708661;stroke-linecap:round;stroke-linejoin:round;stroke:rgb(100%,100%,100%);stroke-opacity:1;stroke-miterlimit:10;" d="M 275 335.492188 C 275 340.230469 267.890625 340.230469 267.890625 335.492188 C 267.890625 330.75 275 330.75 275 335.492188 "/>
<path style="fill-rule:nonzero;fill:rgb(100%,100%,100%);fill-opacity:1;stroke-width:0.708661;stroke-linecap:round;stroke-linejoin:round;stroke:rgb(100%,100%,100%);stroke-opacity:1;stroke-miterlimit:10;" d="M 207.726562 280.519531 C 207.726562 285.257812 200.613281 285.257812 200.613281 280.519531 C 200.613281 275.777344 207.726562 275.777344 207.726562 280.519531 "/>
<path style="fill-rule:nonzero;fill:rgb(100%,100%,100%);fill-opacity:1;stroke-width:0.708661;stroke-linecap:round;stroke-linejoin:round;stroke:rgb(100%,100%,100%);stroke-opacity:1;stroke-miterlimit:10;" d="M 305.621094 291.710938 C 305.621094 296.449219 298.507812 296.449219 298.507812 291.710938 C 298.507812 286.96875 305.621094 286.96875 305.621094 291.710938 "/>
<path style="fill-rule:nonzero;fill:rgb(100%,100%,100%);fill-opacity:1;stroke-width:0.708661;stroke-linecap:round;stroke-linejoin:round;stroke:rgb(100%,100%,100%);stroke-opacity:1;stroke-miterlimit:10;" d="M 148.945312 361.71875 C 148.945312 366.460938 141.832031 366.460938 141.832031 361.71875 C 141.832031 356.980469 148.945312 356.980469 148.945312 361.71875 "/>
<path style="fill-rule:nonzero;fill:rgb(100%,100%,100%);fill-opacity:1;stroke-width:0.708661;stroke-linecap:round;stroke-linejoin:round;stroke:rgb(100%,100%,100%);stroke-opacity:1;stroke-miterlimit:10;" d="M 200.796875 393.019531 C 200.796875 397.757812 193.6875 397.757812 193.6875 393.019531 C 193.6875 388.277344 200.796875 388.277344 200.796875 393.019531 "/>
<path style="fill-rule:nonzero;fill:rgb(100%,100%,100%);fill-opacity:1;stroke-width:0.708661;stroke-linecap:round;stroke-linejoin:round;stroke:rgb(100%,100%,100%);stroke-opacity:1;stroke-miterlimit:10;" d="M 165.035156 379.273438 C 165.035156 384.011719 157.925781 384.011719 157.925781 379.273438 C 157.925781 374.53125 165.035156 374.53125 165.035156 379.273438 "/>
<path style="fill-rule:nonzero;fill:rgb(100%,100%,100%);fill-opacity:1;stroke-width:0.708661;stroke-linecap:round;stroke-linejoin:round;stroke:rgb(100%,100%,100%);stroke-opacity:1;stroke-miterlimit:10;" d="M 253.765625 389.453125 C 253.765625 394.195312 246.65625 394.195312 246.65625 389.453125 C 246.65625 384.714844 253.765625 384.714844 253.765625 389.453125 "/>
<path style="fill-rule:nonzero;fill:rgb(100%,100%,100%);fill-opacity:1;stroke-width:0.708661;stroke-linecap:round;stroke-linejoin:round;stroke:rgb(100%,100%,100%);stroke-opacity:1;stroke-miterlimit:10;" d="M 175.542969 410.835938 C 175.542969 415.578125 168.429688 415.578125 168.429688 410.835938 C 168.429688 406.097656 175.542969 406.097656 175.542969 410.835938 "/>
<path style="fill-rule:nonzero;fill:rgb(100%,100%,100%);fill-opacity:1;stroke-width:0.708661;stroke-linecap:round;stroke-linejoin:round;stroke:rgb(100%,100%,100%);stroke-opacity:1;stroke-miterlimit:10;" d="M 77.421875 417.453125 C 77.421875 422.195312 70.3125 422.195312 70.3125 417.453125 C 70.3125 412.714844 77.421875 412.714844 77.421875 417.453125 "/>
<path style="fill-rule:nonzero;fill:rgb(100%,100%,100%);fill-opacity:1;stroke-width:0.708661;stroke-linecap:round;stroke-linejoin:round;stroke:rgb(100%,100%,100%);stroke-opacity:1;stroke-miterlimit:10;" d="M 440.390625 44.21875 C 440.390625 48.960938 433.28125 48.960938 433.28125 44.21875 C 433.28125 39.480469 440.390625 39.480469 440.390625 44.21875 "/>
<path style="fill-rule:nonzero;fill:rgb(100%,100%,100%);fill-opacity:1;stroke-width:0.708661;stroke-linecap:round;stroke-linejoin:round;stroke:rgb(100%,100%,100%);stroke-opacity:1;stroke-miterlimit:10;" d="M 24.898438 478.546875 C 24.898438 483.285156 17.789062 483.285156 17.789062 478.546875 C 17.789062 473.804688 24.898438 473.804688 24.898438 478.546875 "/>
<path style="fill-rule:nonzero;fill:rgb(100%,100%,100%);fill-opacity:1;stroke-width:0.708661;stroke-linecap:round;stroke-linejoin:round;stroke:rgb(100%,100%,100%);stroke-opacity:1;stroke-miterlimit:10;" d="M 471.234375 155.273438 C 471.234375 160.011719 464.125 160.011719 464.125 155.273438 C 464.125 150.53125 471.234375 150.53125 471.234375 155.273438 "/>
<path style="fill-rule:nonzero;fill:rgb(100%,100%,100%);fill-opacity:1;stroke-width:0.708661;stroke-linecap:round;stroke-linejoin:round;stroke:rgb(100%,100%,100%);stroke-opacity:1;stroke-miterlimit:10;" d="M 378.707031 48.363281 C 378.707031 53.105469 371.59375 53.105469 371.59375 48.363281 C 371.59375 43.625 378.707031 43.625 378.707031 48.363281 "/>
<path style="fill-rule:nonzero;fill:rgb(100%,100%,100%);fill-opacity:1;stroke-width:0.708661;stroke-linecap:round;stroke-linejoin:round;stroke:rgb(100%,100%,100%);stroke-opacity:1;stroke-miterlimit:10;" d="M 151.179688 356.363281 C 151.179688 361.105469 144.070312 361.105469 144.070312 356.363281 C 144.070312 351.625 151.179688 351.625 151.179688 356.363281 "/>
<path style="fill-rule:nonzero;fill:rgb(100%,100%,100%);fill-opacity:1;stroke-width:0.708661;stroke-linecap:round;stroke-linejoin:round;stroke:rgb(100%,100%,100%);stroke-opacity:1;stroke-miterlimit:10;" d="M 447.097656 203.636719 C 447.097656 208.375 439.988281 208.375 439.988281 203.636719 C 439.988281 198.894531 447.097656 198.894531 447.097656 203.636719 "/>
<path style="fill-rule:nonzero;fill:rgb(100%,100%,100%);fill-opacity:1;stroke-width:0.708661;stroke-linecap:round;stroke-linejoin:round;stroke:rgb(100%,100%,100%);stroke-opacity:1;stroke-miterlimit:10;" d="M 218.230469 377.238281 C 218.230469 381.976562 211.121094 381.976562 211.121094 377.238281 C 211.121094 372.496094 218.230469 372.496094 218.230469 377.238281 "/>
<path style="fill-rule:nonzero;fill:rgb(100%,100%,100%);fill-opacity:1;stroke-width:0.708661;stroke-linecap:round;stroke-linejoin:round;stroke:rgb(100%,100%,100%);stroke-opacity:1;stroke-miterlimit:10;" d="M 20.207031 422.035156 C 20.207031 426.777344 13.097656 426.777344 13.097656 422.035156 C 13.097656 417.296875 20.207031 417.296875 20.207031 422.035156 "/>
<path style="fill-rule:nonzero;fill:rgb(100%,100%,100%);fill-opacity:1;stroke-width:0.708661;stroke-linecap:round;stroke-linejoin:round;stroke:rgb(100%,100%,100%);stroke-opacity:1;stroke-miterlimit:10;" d="M 202.585938 361.964844 C 202.585938 366.703125 195.472656 366.703125 195.472656 361.964844 C 195.472656 357.222656 202.585938 357.222656 202.585938 361.964844 "/>
<path style="fill-rule:nonzero;fill:rgb(100%,100%,100%);fill-opacity:1;stroke-width:0.708661;stroke-linecap:round;stroke-linejoin:round;stroke:rgb(100%,100%,100%);stroke-opacity:1;stroke-miterlimit:10;" d="M 248.625 219.417969 C 248.625 224.160156 241.515625 224.160156 241.515625 219.417969 C 241.515625 214.679688 248.625 214.679688 248.625 219.417969 "/>
<path style="fill-rule:nonzero;fill:rgb(100%,100%,100%);fill-opacity:1;stroke-width:0.708661;stroke-linecap:round;stroke-linejoin:round;stroke:rgb(100%,100%,100%);stroke-opacity:1;stroke-miterlimit:10;" d="M 253.542969 393.628906 C 253.542969 398.371094 246.433594 398.371094 246.433594 393.628906 C 246.433594 388.890625 253.542969 388.890625 253.542969 393.628906 "/>
<path style="fill-rule:nonzero;fill:rgb(100%,100%,100%);fill-opacity:1;stroke-width:0.708661;stroke-linecap:round;stroke-linejoin:round;stroke:rgb(100%,100%,100%);stroke-opacity:1;stroke-miterlimit:10;" d="M 230.300781 206.285156 C 230.300781 211.023438 223.1875 211.023438 223.1875 206.285156 C 223.1875 201.542969 230.300781 201.542969 230.300781 206.285156 "/>
<path style="fill-rule:nonzero;fill:rgb(100%,100%,100%);fill-opacity:1;stroke-width:0.708661;stroke-linecap:round;stroke-linejoin:round;stroke:rgb(100%,100%,100%);stroke-opacity:1;stroke-miterlimit:10;" d="M 188.28125 374.183594 C 188.28125 378.921875 181.171875 378.921875 181.171875 374.183594 C 181.171875 369.441406 188.28125 369.441406 188.28125 374.183594 "/>
<path style="fill-rule:nonzero;fill:rgb(100%,100%,100%);fill-opacity:1;stroke-width:0.708661;stroke-linecap:round;stroke-linejoin:round;stroke:rgb(100%,100%,100%);stroke-opacity:1;stroke-miterlimit:10;" d="M 195.433594 344.65625 C 195.433594 349.394531 188.324219 349.394531 188.324219 344.65625 C 188.324219 339.914062 195.433594 339.914062 195.433594 344.65625 "/>
<path style="fill-rule:nonzero;fill:rgb(100%,100%,100%);fill-opacity:1;stroke-width:0.708661;stroke-linecap:round;stroke-linejoin:round;stroke:rgb(100%,100%,100%);stroke-opacity:1;stroke-miterlimit:10;" d="M 236.109375 336.507812 C 236.109375 341.25 229 341.25 229 336.507812 C 229 331.769531 236.109375 331.769531 236.109375 336.507812 "/>
<path style="fill-rule:nonzero;fill:rgb(100%,100%,100%);fill-opacity:1;stroke-width:0.708661;stroke-linecap:round;stroke-linejoin:round;stroke:rgb(100%,100%,100%);stroke-opacity:1;stroke-miterlimit:10;" d="M 476.824219 226.75 C 476.824219 231.488281 469.714844 231.488281 469.714844 226.75 C 469.714844 222.007812 476.824219 222.007812 476.824219 226.75 "/>
<path style="fill-rule:nonzero;fill:rgb(100%,100%,100%);fill-opacity:1;stroke-width:0.708661;stroke-linecap:round;stroke-linejoin:round;stroke:rgb(100%,100%,100%);stroke-opacity:1;stroke-miterlimit:10;" d="M 241.699219 336 C 241.699219 340.742188 234.585938 340.742188 234.585938 336 C 234.585938 331.257812 241.699219 331.257812 241.699219 336 "/>
<path style="fill-rule:nonzero;fill:rgb(100%,100%,100%);fill-opacity:1;stroke-width:0.708661;stroke-linecap:round;stroke-linejoin:round;stroke:rgb(100%,100%,100%);stroke-opacity:1;stroke-miterlimit:10;" d="M 148.945312 436.800781 C 148.945312 441.539062 141.832031 441.539062 141.832031 436.800781 C 141.832031 432.058594 148.945312 432.058594 148.945312 436.800781 "/>
<path style="fill-rule:nonzero;fill:rgb(100%,100%,100%);fill-opacity:1;stroke-width:0.708661;stroke-linecap:round;stroke-linejoin:round;stroke:rgb(100%,100%,100%);stroke-opacity:1;stroke-miterlimit:10;" d="M 125.476562 391.492188 C 125.476562 396.230469 118.367188 396.230469 118.367188 391.492188 C 118.367188 386.75 125.476562 386.75 125.476562 391.492188 "/>
<path style="fill:none;stroke-width:4.267913;stroke-linecap:butt;stroke-linejoin:round;stroke:rgb(30.196078%,55.294118%,78.823529%);stroke-opacity:1;stroke-miterlimit:10;" d="M 40.34375 421.324219 L 107.167969 421.324219 L 114.546875 383.53125 L 177.574219 383.53125 L 210.875 311.011719 L 334.25 311.011719 L 365.539062 165.769531 L 428.34375 165.769531 "/>
</g>
</svg>
