<?xml version="1.0" encoding="UTF-8"?>
<svg xmlns="http://www.w3.org/2000/svg" xmlns:xlink="http://www.w3.org/1999/xlink" width="504pt" height="504pt" viewBox="0 0 504 504" version="1.1">
<g id="surface54">
<path style="fill-rule:nonzero;fill:rgb(100%,100%,100%);fill-opacity:1;stroke-width:0.708661;stroke-linecap:round;stroke-linejoin:round;stroke:rgb(100%,100%,100%);stroke-opacity:1;stroke-miterlimit:10;" d="M 233.132812 481.089844 C 233.132812 485.832031 226.023438 485.832031 226.023438 481.089844 C 226.023438 476.351562 233.132812 476.351562 233.132812 481.089844 "/>
<path style="fill-rule:nonzero;fill:rgb(100%,100%,100%);fill-opacity:1;stroke-width:0.708661;stroke-linecap:round;stroke-linejoin:round;stroke:rgb(100%,100%,100%);stroke-opacity:1;stroke-miterlimit:10;" d="M 233.132812 481.089844 C 233.132812 485.832031 226.023438 485.832031 226.023438 481.089844 C 226.023438 476.351562 233.132812 476.351562 233.132812 481.089844 "/>
<path style="fill-rule:nonzero;fill:rgb(100%,100%,100%);fill-opacity:1;stroke-width:0.708661;stroke-linecap:round;stroke-linejoin:round;stroke:rgb(100%,100%,100%);stroke-opacity:1;stroke-miterlimit:10;" d="M 268.226562 22.910156 C 268.226562 27.648438 261.117188 27.648438 261.117188 22.910156 C 261.117188 18.167969 268.226562 18.167969 268.226562 22.910156 "/>
<path style="fill-rule:nonzero;fill:rgb(100%,100%,100%);fill-opacity:1;stroke-width:0.708661;stroke-linecap:round;stroke-linejoin:round;stroke:rgb(100%,100%,100%);stroke-opacity:1;stroke-miterlimit:10;" d="M 240.933594 22.910156 C 240.933594 27.648438 233.820312 27.648438 233.820312 22.910156 C 233.820312 18.167969 240.933594 18.167969 240.933594 22.910156 "/>
<path style="fill-rule:nonzero;fill:rgb(100%,100%,100%);fill-opacity:1;stroke-width:0.708661;stroke-linecap:round;stroke-linejoin:round;stroke:rgb(100%,100%,100%);stroke-opacity:1;stroke-miterlimit:10;" d="M 188.289062 481.089844 C 188.289062 485.832031 181.179688 485.832031 181.179688 481.089844 C 181.179688 476.351562 188.289062 476.351562 188.289062 481.089844 "/>
<path style="fill-rule:nonzero;fill:rgb(100%,100%,100%);fill-opacity:1;stroke-width:0.708661;stroke-linecap:round;stroke-linejoin:round;stroke:rgb(100%,100%,100%);stroke-opacity:1;stroke-miterlimit:10;" d="M 176.59375 22.910156 C 176.59375 27.648438 169.480469 27.648438 169.480469 22.910156 C 169.480469 18.167969 176.59375 18.167969 176.59375 22.910156 "/>
<path style="fill-rule:nonzero;fill:rgb(100%,100%,100%);fill-opacity:1;stroke-width:0.708661;stroke-linecap:round;stroke-linejoin:round;stroke:rgb(100%,100%,100%);stroke-opacity:1;stroke-miterlimit:10;" d="M 102.503906 481.089844 C 102.503906 485.832031 95.390625 485.832031 95.390625 481.089844 C 95.390625 476.351562 102.503906 476.351562 102.503906 481.089844 "/>
<path style="fill-rule:nonzero;fill:rgb(100%,100%,100%);fill-opacity:1;stroke-width:0.708661;stroke-linecap:round;stroke-linejoin:round;stroke:rgb(100%,100%,100%);stroke-opacity:1;stroke-miterlimit:10;" d="M 299.421875 22.910156 C 299.421875 27.648438 292.3125 27.648438 292.3125 22.910156 C 292.3125 18.167969 299.421875 18.167969 299.421875 22.910156 "/>
<path style="fill-rule:nonzero;fill:rgb(100%,100%,100%);fill-opacity:1;stroke-width:0.708661;stroke-linecap:round;stroke-linejoin:round;stroke:rgb(100%,100%,100%);stroke-opacity:1;stroke-miterlimit:10;" d="M 268.226562 22.910156 C 268.226562 27.648438 261.117188 27.648438 261.117188 22.910156 C 261.117188 18.167969 268.226562 18.167969 268.226562 22.910156 "/>
<path style="fill-rule:nonzero;fill:rgb(100%,100%,100%);fill-opacity:1;stroke-width:0.708661;stroke-linecap:round;stroke-linejoin:round;stroke:rgb(100%,100%,100%);stroke-opacity:1;stroke-miterlimit:10;" d="M 198.039062 22.910156 C 198.039062 27.648438 190.929688 27.648438 190.929688 22.910156 C 190.929688 18.167969 198.039062 18.167969 198.039062 22.910156 "/>
<path style="fill-rule:nonzero;fill:rgb(100%,100%,100%);fill-opacity:1;stroke-width:0.708661;stroke-linecap:round;stroke-linejoin:round;stroke:rgb(100%,100%,100%);stroke-opacity:1;stroke-miterlimit:10;" d="M 170.742188 22.910156 C 170.742188 27.648438 163.632812 27.648438 163.632812 22.910156 C 163.632812 18.167969 170.742188 18.167969 170.742188 22.910156 "/>
<path style="fill-rule:nonzero;fill:rgb(100%,100%,100%);fill-opacity:1;stroke-width:0.708661;stroke-linecap:round;stroke-linejoin:round;stroke:rgb(100%,100%,100%);stroke-opacity:1;stroke-miterlimit:10;" d="M 143.445312 481.089844 C 143.445312 485.832031 136.335938 485.832031 136.335938 481.089844 C 136.335938 476.351562 143.445312 476.351562 143.445312 481.089844 "/>
<path style="fill-rule:nonzero;fill:rgb(100%,100%,100%);fill-opacity:1;stroke-width:0.708661;stroke-linecap:round;stroke-linejoin:round;stroke:rgb(100%,100%,100%);stroke-opacity:1;stroke-miterlimit:10;" d="M 160.996094 481.089844 C 160.996094 485.832031 153.882812 485.832031 153.882812 481.089844 C 153.882812 476.351562 160.996094 476.351562 160.996094 481.089844 "/>
<path style="fill-rule:nonzero;fill:rgb(100%,100%,100%);fill-opacity:1;stroke-width:0.708661;stroke-linecap:round;stroke-linejoin:round;stroke:rgb(100%,100%,100%);stroke-opacity:1;stroke-miterlimit:10;" d="M 120.050781 481.089844 C 120.050781 485.832031 112.941406 485.832031 112.941406 481.089844 C 112.941406 476.351562 120.050781 476.351562 120.050781 481.089844 "/>
<path style="fill-rule:nonzero;fill:rgb(100%,100%,100%);fill-opacity:1;stroke-width:0.708661;stroke-linecap:round;stroke-linejoin:round;stroke:rgb(100%,100%,100%);stroke-opacity:1;stroke-miterlimit:10;" d="M 26.464844 481.089844 C 26.464844 485.832031 19.355469 485.832031 19.355469 481.089844 C 19.355469 476.351562 26.464844 476.351562 26.464844 481.089844 "/>
<path style="fill-rule:nonzero;fill:rgb(100%,100%,100%);fill-opacity:1;stroke-width:0.708661;stroke-linecap:round;stroke-linejoin:round;stroke:rgb(100%,100%,100%);stroke-opacity:1;stroke-miterlimit:10;" d="M 26.464844 481.089844 C 26.464844 485.832031 19.355469 485.832031 19.355469 481.089844 C 19.355469 476.351562 26.464844 476.351562 26.464844 481.089844 "/>
<path style="fill-rule:nonzero;fill:rgb(100%,100%,100%);fill-opacity:1;stroke-width:0.708661;stroke-linecap:round;stroke-linejoin:round;stroke:rgb(100%,100%,100%);stroke-opacity:1;stroke-miterlimit:10;" d="M 110.300781 481.089844 C 110.300781 485.832031 103.191406 485.832031 103.191406 481.089844 C 103.191406 476.351562 110.300781 476.351562 110.300781 481.089844 "/>
<path style="fill-rule:nonzero;fill:rgb(100%,100%,100%);fill-opacity:1;stroke-width:0.708661;stroke-linecap:round;stroke-linejoin:round;stroke:rgb(100%,100%,100%);stroke-opacity:1;stroke-miterlimit:10;" d="M 455.402344 22.910156 C 455.402344 27.648438 448.289062 27.648438 448.289062 22.910156 C 448.289062 18.167969 455.402344 18.167969 455.402344 22.910156 "/>
<path style="fill-rule:nonzero;fill:rgb(100%,100%,100%);fill-opacity:1;stroke-width:0.708661;stroke-linecap:round;stroke-linejoin:round;stroke:rgb(100%,100%,100%);stroke-opacity:1;stroke-miterlimit:10;" d="M 416.40625 22.910156 C 416.40625 27.648438 409.296875 27.648438 409.296875 22.910156 C 409.296875 18.167969 416.40625 18.167969 416.40625 22.910156 "/>
<path style="fill-rule:nonzero;fill:rgb(100%,100%,100%);fill-opacity:1;stroke-width:0.708661;stroke-linecap:round;stroke-linejoin:round;stroke:rgb(100%,100%,100%);stroke-opacity:1;stroke-miterlimit:10;" d="M 484.644531 22.910156 C 484.644531 27.648438 477.535156 27.648438 477.535156 22.910156 C 477.535156 18.167969 484.644531 18.167969 484.644531 22.910156 "/>
<path style="fill-rule:nonzero;fill:rgb(100%,100%,100%);fill-opacity:1;stroke-width:0.708661;stroke-linecap:round;stroke-linejoin:round;stroke:rgb(100%,100%,100%);stroke-opacity:1;stroke-miterlimit:10;" d="M 242.882812 22.910156 C 242.882812 27.648438 235.773438 27.648438 235.773438 22.910156 C 235.773438 18.167969 242.882812 18.167969 242.882812 22.910156 "/>
<path style="fill-rule:nonzero;fill:rgb(100%,100%,100%);fill-opacity:1;stroke-width:0.708661;stroke-linecap:round;stroke-linejoin:round;stroke:rgb(100%,100%,100%);stroke-opacity:1;stroke-miterlimit:10;" d="M 125.898438 481.089844 C 125.898438 485.832031 118.789062 485.832031 118.789062 481.089844 C 118.789062 476.351562 125.898438 476.351562 125.898438 481.089844 "/>
<path style="fill-rule:nonzero;fill:rgb(100%,100%,100%);fill-opacity:1;stroke-width:0.708661;stroke-linecap:round;stroke-linejoin:round;stroke:rgb(100%,100%,100%);stroke-opacity:1;stroke-miterlimit:10;" d="M 120.050781 481.089844 C 120.050781 485.832031 112.941406 485.832031 112.941406 481.089844 C 112.941406 476.351562 120.050781 476.351562 120.050781 481.089844 "/>
<path style="fill-rule:nonzero;fill:rgb(100%,100%,100%);fill-opacity:1;stroke-width:0.708661;stroke-linecap:round;stroke-linejoin:round;stroke:rgb(100%,100%,100%);stroke-opacity:1;stroke-miterlimit:10;" d="M 83.007812 481.089844 C 83.007812 485.832031 75.894531 485.832031 75.894531 481.089844 C 75.894531 476.351562 83.007812 476.351562 83.007812 481.089844 "/>
<path style="fill-rule:nonzero;fill:rgb(100%,100%,100%);fill-opacity:1;stroke-width:0.708661;stroke-linecap:round;stroke-linejoin:round;stroke:rgb(100%,100%,100%);stroke-opacity:1;stroke-miterlimit:10;" d="M 198.039062 481.089844 C 198.039062 485.832031 190.929688 485.832031 190.929688 481.089844 C 190.929688 476.351562 198.039062 476.351562 198.039062 481.089844 "/>
<path style="fill-rule:nonzero;fill:rgb(100%,100%,100%);fill-opacity:1;stroke-width:0.708661;stroke-linecap:round;stroke-linejoin:round;stroke:rgb(100%,100%,100%);stroke-opacity:1;stroke-miterlimit:10;" d="M 355.964844 22.910156 C 355.964844 27.648438 348.855469 27.648438 348.855469 22.910156 C 348.855469 18.167969 355.964844 18.167969 355.964844 22.910156 "/>
<path style="fill-rule:nonzero;fill:rgb(100%,100%,100%);fill-opacity:1;stroke-width:0.708661;stroke-linecap:round;stroke-linejoin:round;stroke:rgb(100%,100%,100%);stroke-opacity:1;stroke-miterlimit:10;" d="M 330.617188 481.089844 C 330.617188 485.832031 323.507812 485.832031 323.507812 481.089844 C 323.507812 476.351562 330.617188 476.351562 330.617188 481.089844 "/>
<path style="fill-rule:nonzero;fill:rgb(100%,100%,100%);fill-opacity:1;stroke-width:0.708661;stroke-linecap:round;stroke-linejoin:round;stroke:rgb(100%,100%,100%);stroke-opacity:1;stroke-miterlimit:10;" d="M 416.40625 22.910156 C 416.40625 27.648438 409.296875 27.648438 409.296875 22.910156 C 409.296875 18.167969 416.40625 18.167969 416.40625 22.910156 "/>
<path style="fill-rule:nonzero;fill:rgb(100%,100%,100%);fill-opacity:1;stroke-width:0.708661;stroke-linecap:round;stroke-linejoin:round;stroke:rgb(100%,100%,100%);stroke-opacity:1;stroke-miterlimit:10;" d="M 131.75 481.089844 C 131.75 485.832031 124.636719 485.832031 124.636719 481.089844 C 124.636719 476.351562 131.75 476.351562 131.75 481.089844 "/>
<path style="fill-rule:nonzero;fill:rgb(100%,100%,100%);fill-opacity:1;stroke-width:0.708661;stroke-linecap:round;stroke-linejoin:round;stroke:rgb(100%,100%,100%);stroke-opacity:1;stroke-miterlimit:10;" d="M 207.789062 481.089844 C 207.789062 485.832031 200.675781 485.832031 200.675781 481.089844 C 200.675781 476.351562 207.789062 476.351562 207.789062 481.089844 "/>
<path style="fill-rule:nonzero;fill:rgb(100%,100%,100%);fill-opacity:1;stroke-width:0.708661;stroke-linecap:round;stroke-linejoin:round;stroke:rgb(100%,100%,100%);stroke-opacity:1;stroke-miterlimit:10;" d="M 116.152344 481.089844 C 116.152344 485.832031 109.039062 485.832031 109.039062 481.089844 C 109.039062 476.351562 116.152344 476.351562 116.152344 481.089844 "/>
<path style="fill-rule:nonzero;fill:rgb(100%,100%,100%);fill-opacity:1;stroke-width:0.708661;stroke-linecap:round;stroke-linejoin:round;stroke:rgb(100%,100%,100%);stroke-opacity:1;stroke-miterlimit:10;" d="M 240.933594 22.910156 C 240.933594 27.648438 233.820312 27.648438 233.820312 22.910156 C 233.820312 18.167969 240.933594 18.167969 240.933594 22.910156 "/>
<path style="fill:none;stroke-width:4.267913;stroke-linecap:butt;stroke-linejoin:round;stroke:rgb(30.196078%,55.294118%,78.823529%);stroke-opacity:1;stroke-miterlimit:10;" d="M 22.910156 475.292969 L 28.707031 474.511719 L 34.507812 473.625 L 40.308594 472.625 L 46.109375 471.492188 L 51.90625 470.214844 L 57.707031 468.769531 L 63.507812 467.136719 L 69.308594 465.296875 L 75.105469 463.222656 L 80.90625 460.890625 L 86.707031 458.269531 L 92.507812 455.324219 L 98.304688 452.03125 L 104.105469 448.34375 L 109.90625 444.230469 L 115.707031 439.652344 L 121.503906 434.566406 L 127.304688 428.933594 L 133.105469 422.71875 L 138.90625 415.878906 L 144.703125 408.382812 L 150.503906 400.207031 L 156.304688 391.324219 L 162.105469 381.722656 L 167.902344 371.398438 L 173.703125 360.363281 L 179.503906 348.636719 L 185.300781 336.265625 L 191.101562 323.296875 L 196.902344 309.800781 L 202.703125 295.863281 L 208.5 281.578125 L 214.300781 267.058594 L 220.101562 252.414062 L 225.902344 237.765625 L 231.699219 223.234375 L 237.5 208.933594 L 243.300781 194.972656 L 249.101562 181.449219 L 254.898438 168.449219 L 260.699219 156.039062 L 266.5 144.28125 L 272.300781 133.203125 L 278.097656 122.839844 L 283.898438 113.199219 L 289.699219 104.273438 L 295.5 96.058594 L 301.296875 88.527344 L 307.097656 81.652344 L 312.898438 75.398438 L 318.699219 69.738281 L 324.496094 64.621094 L 330.296875 60.015625 L 336.097656 55.875 L 341.894531 52.167969 L 347.695312 48.851562 L 353.496094 45.890625 L 359.296875 43.25 L 365.09375 40.902344 L 370.894531 38.8125 L 376.695312 36.960938 L 382.496094 35.320312 L 388.292969 33.863281 L 394.09375 32.574219 L 399.894531 31.433594 L 405.695312 30.425781 L 411.492188 29.535156 L 417.292969 28.75 L 423.09375 28.054688 L 428.894531 27.445312 L 434.691406 26.902344 L 440.492188 26.425781 L 446.292969 26.007812 L 452.09375 25.636719 L 457.890625 25.3125 L 463.691406 25.023438 L 469.492188 24.769531 L 475.292969 24.546875 L 481.089844 24.351562 "/>
</g>
</svg>
