<?xml version="1.0" encoding="UTF-8"?>
<svg xmlns="http://www.w3.org/2000/svg" xmlns:xlink="http://www.w3.org/1999/xlink" width="504pt" height="504pt" viewBox="0 0 504 504" version="1.1">
<g id="surface24">
<path style="fill:none;stroke-width:6.40187;stroke-linecap:butt;stroke-linejoin:round;stroke:rgb(30.196078%,55.294118%,78.823529%);stroke-opacity:1;stroke-miterlimit:10;" d="M 22.910156 450.261719 L 28.707031 442.414062 L 34.507812 437.453125 L 40.308594 433.847656 L 46.109375 430.664062 L 51.90625 427.390625 L 57.707031 423.824219 L 63.507812 419.957031 L 69.308594 415.921875 L 75.105469 411.898438 L 80.90625 408.089844 L 86.707031 404.679688 L 92.507812 401.804688 L 98.304688 399.550781 L 104.105469 397.953125 L 109.90625 396.972656 L 115.707031 396.53125 L 121.503906 396.496094 L 127.304688 396.703125 L 133.105469 396.964844 L 138.90625 397.085938 L 144.703125 396.871094 L 150.503906 396.136719 L 156.304688 394.734375 L 162.105469 392.53125 L 167.902344 389.445312 L 173.703125 385.441406 L 179.503906 380.523438 L 185.300781 374.746094 L 191.101562 368.207031 L 196.902344 361.046875 L 202.703125 353.445312 L 208.5 345.605469 L 214.300781 337.753906 L 220.101562 330.128906 L 225.902344 322.960938 L 231.699219 316.484375 L 237.5 310.898438 L 243.300781 306.378906 L 249.101562 303.058594 L 254.898438 301.019531 L 260.699219 300.285156 L 266.5 300.824219 L 272.300781 302.523438 L 278.097656 305.222656 L 283.898438 308.679688 L 289.699219 312.59375 L 295.5 316.617188 L 301.296875 320.339844 L 307.097656 323.328125 L 312.898438 325.132812 L 318.699219 325.289062 L 324.496094 323.359375 L 330.296875 318.941406 L 336.097656 311.695312 L 341.894531 301.355469 L 347.695312 287.773438 L 353.496094 270.929688 L 359.296875 250.941406 L 365.09375 228.105469 L 370.894531 202.886719 L 376.695312 175.945312 L 382.496094 148.125 L 388.292969 120.4375 L 394.09375 94.0625 L 399.894531 70.296875 L 405.695312 50.515625 L 411.492188 36.097656 L 417.292969 28.339844 L 423.09375 28.355469 L 428.894531 36.929688 L 434.691406 54.339844 L 440.492188 80.175781 L 446.292969 113.089844 L 452.09375 150.511719 L 457.890625 188.324219 L 463.691406 220.5 L 469.492188 238.648438 L 475.292969 231.527344 L 481.089844 184.496094 "/>
<path style="fill-rule:nonzero;fill:rgb(100%,100%,100%);fill-opacity:1;stroke-width:0.708661;stroke-linecap:round;stroke-linejoin:round;stroke:rgb(100%,100%,100%);stroke-opacity:1;stroke-miterlimit:10;" d="M 369.148438 302.910156 C 369.148438 307.648438 362.035156 307.648438 362.035156 302.910156 C 362.035156 298.167969 369.148438 298.167969 369.148438 302.910156 "/>
<path style="fill-rule:nonzero;fill:rgb(100%,100%,100%);fill-opacity:1;stroke-width:0.708661;stroke-linecap:round;stroke-linejoin:round;stroke:rgb(100%,100%,100%);stroke-opacity:1;stroke-miterlimit:10;" d="M 108.996094 440.363281 C 108.996094 445.105469 101.886719 445.105469 101.886719 440.363281 C 101.886719 435.625 108.996094 435.625 108.996094 440.363281 "/>
<path style="fill-rule:nonzero;fill:rgb(100%,100%,100%);fill-opacity:1;stroke-width:0.708661;stroke-linecap:round;stroke-linejoin:round;stroke:rgb(100%,100%,100%);stroke-opacity:1;stroke-miterlimit:10;" d="M 217.316406 371.128906 C 217.316406 375.867188 210.207031 375.867188 210.207031 371.128906 C 210.207031 366.386719 217.316406 366.386719 217.316406 371.128906 "/>
<path style="fill-rule:nonzero;fill:rgb(100%,100%,100%);fill-opacity:1;stroke-width:0.708661;stroke-linecap:round;stroke-linejoin:round;stroke:rgb(100%,100%,100%);stroke-opacity:1;stroke-miterlimit:10;" d="M 248.042969 339.867188 C 248.042969 344.609375 240.933594 344.609375 240.933594 339.867188 C 240.933594 335.128906 248.042969 335.128906 248.042969 339.867188 "/>
<path style="fill-rule:nonzero;fill:rgb(100%,100%,100%);fill-opacity:1;stroke-width:0.708661;stroke-linecap:round;stroke-linejoin:round;stroke:rgb(100%,100%,100%);stroke-opacity:1;stroke-miterlimit:10;" d="M 122.898438 359.925781 C 122.898438 364.667969 115.789062 364.667969 115.789062 359.925781 C 115.789062 355.1875 122.898438 355.1875 122.898438 359.925781 "/>
<path style="fill-rule:nonzero;fill:rgb(100%,100%,100%);fill-opacity:1;stroke-width:0.708661;stroke-linecap:round;stroke-linejoin:round;stroke:rgb(100%,100%,100%);stroke-opacity:1;stroke-miterlimit:10;" d="M 65.9375 386.398438 C 65.9375 391.140625 58.824219 391.140625 58.824219 386.398438 C 58.824219 381.660156 65.9375 381.660156 65.9375 386.398438 "/>
<path style="fill-rule:nonzero;fill:rgb(100%,100%,100%);fill-opacity:1;stroke-width:0.708661;stroke-linecap:round;stroke-linejoin:round;stroke:rgb(100%,100%,100%);stroke-opacity:1;stroke-miterlimit:10;" d="M 130.523438 389.453125 C 130.523438 394.195312 123.414062 394.195312 123.414062 389.453125 C 123.414062 384.714844 130.523438 384.714844 130.523438 389.453125 "/>
<path style="fill-rule:nonzero;fill:rgb(100%,100%,100%);fill-opacity:1;stroke-width:0.708661;stroke-linecap:round;stroke-linejoin:round;stroke:rgb(100%,100%,100%);stroke-opacity:1;stroke-miterlimit:10;" d="M 337.972656 360.4375 C 337.972656 365.175781 330.863281 365.175781 330.863281 360.4375 C 330.863281 355.695312 337.972656 355.695312 337.972656 360.4375 "/>
<path style="fill-rule:nonzero;fill:rgb(100%,100%,100%);fill-opacity:1;stroke-width:0.708661;stroke-linecap:round;stroke-linejoin:round;stroke:rgb(100%,100%,100%);stroke-opacity:1;stroke-miterlimit:10;" d="M 91.054688 427.128906 C 91.054688 431.867188 83.941406 431.867188 83.941406 427.128906 C 83.941406 422.386719 91.054688 422.386719 91.054688 427.128906 "/>
<path style="fill-rule:nonzero;fill:rgb(100%,100%,100%);fill-opacity:1;stroke-width:0.708661;stroke-linecap:round;stroke-linejoin:round;stroke:rgb(100%,100%,100%);stroke-opacity:1;stroke-miterlimit:10;" d="M 120.65625 454.617188 C 120.65625 459.359375 113.546875 459.359375 113.546875 454.617188 C 113.546875 449.878906 120.65625 449.878906 120.65625 454.617188 "/>
<path style="fill-rule:nonzero;fill:rgb(100%,100%,100%);fill-opacity:1;stroke-width:0.708661;stroke-linecap:round;stroke-linejoin:round;stroke:rgb(100%,100%,100%);stroke-opacity:1;stroke-miterlimit:10;" d="M 461.097656 223.003906 C 461.097656 227.746094 453.988281 227.746094 453.988281 223.003906 C 453.988281 218.265625 461.097656 218.265625 461.097656 223.003906 "/>
<path style="fill-rule:nonzero;fill:rgb(100%,100%,100%);fill-opacity:1;stroke-width:0.708661;stroke-linecap:round;stroke-linejoin:round;stroke:rgb(100%,100%,100%);stroke-opacity:1;stroke-miterlimit:10;" d="M 372.960938 259.128906 C 372.960938 263.867188 365.851562 263.867188 365.851562 259.128906 C 365.851562 254.386719 372.960938 254.386719 372.960938 259.128906 "/>
<path style="fill-rule:nonzero;fill:rgb(100%,100%,100%);fill-opacity:1;stroke-width:0.708661;stroke-linecap:round;stroke-linejoin:round;stroke:rgb(100%,100%,100%);stroke-opacity:1;stroke-miterlimit:10;" d="M 315.097656 313.089844 C 315.097656 317.832031 307.988281 317.832031 307.988281 313.089844 C 307.988281 308.351562 315.097656 308.351562 315.097656 313.089844 "/>
<path style="fill-rule:nonzero;fill:rgb(100%,100%,100%);fill-opacity:1;stroke-width:0.708661;stroke-linecap:round;stroke-linejoin:round;stroke:rgb(100%,100%,100%);stroke-opacity:1;stroke-miterlimit:10;" d="M 248.042969 271.34375 C 248.042969 276.085938 240.933594 276.085938 240.933594 271.34375 C 240.933594 266.605469 248.042969 266.605469 248.042969 271.34375 "/>
<path style="fill-rule:nonzero;fill:rgb(100%,100%,100%);fill-opacity:1;stroke-width:0.708661;stroke-linecap:round;stroke-linejoin:round;stroke:rgb(100%,100%,100%);stroke-opacity:1;stroke-miterlimit:10;" d="M 229.203125 304.4375 C 229.203125 309.175781 222.09375 309.175781 222.09375 304.4375 C 222.09375 299.695312 229.203125 299.695312 229.203125 304.4375 "/>
<path style="fill-rule:nonzero;fill:rgb(100%,100%,100%);fill-opacity:1;stroke-width:0.708661;stroke-linecap:round;stroke-linejoin:round;stroke:rgb(100%,100%,100%);stroke-opacity:1;stroke-miterlimit:10;" d="M 65.9375 385.382812 C 65.9375 390.121094 58.824219 390.121094 58.824219 385.382812 C 58.824219 380.640625 65.9375 380.640625 65.9375 385.382812 "/>
<path style="fill-rule:nonzero;fill:rgb(100%,100%,100%);fill-opacity:1;stroke-width:0.708661;stroke-linecap:round;stroke-linejoin:round;stroke:rgb(100%,100%,100%);stroke-opacity:1;stroke-miterlimit:10;" d="M 325.191406 269.816406 C 325.191406 274.558594 318.082031 274.558594 318.082031 269.816406 C 318.082031 265.078125 325.191406 265.078125 325.191406 269.816406 "/>
<path style="fill-rule:nonzero;fill:rgb(100%,100%,100%);fill-opacity:1;stroke-width:0.708661;stroke-linecap:round;stroke-linejoin:round;stroke:rgb(100%,100%,100%);stroke-opacity:1;stroke-miterlimit:10;" d="M 212.160156 280.9375 C 212.160156 285.679688 205.046875 285.679688 205.046875 280.9375 C 205.046875 276.199219 212.160156 276.199219 212.160156 280.9375 "/>
<path style="fill-rule:nonzero;fill:rgb(100%,100%,100%);fill-opacity:1;stroke-width:0.708661;stroke-linecap:round;stroke-linejoin:round;stroke:rgb(100%,100%,100%);stroke-opacity:1;stroke-miterlimit:10;" d="M 176.277344 401.671875 C 176.277344 406.414062 169.164062 406.414062 169.164062 401.671875 C 169.164062 396.933594 176.277344 396.933594 176.277344 401.671875 "/>
<path style="fill-rule:nonzero;fill:rgb(100%,100%,100%);fill-opacity:1;stroke-width:0.708661;stroke-linecap:round;stroke-linejoin:round;stroke:rgb(100%,100%,100%);stroke-opacity:1;stroke-miterlimit:10;" d="M 279.441406 213.816406 C 279.441406 218.558594 272.328125 218.558594 272.328125 213.816406 C 272.328125 209.078125 279.441406 209.078125 279.441406 213.816406 "/>
<path style="fill-rule:nonzero;fill:rgb(100%,100%,100%);fill-opacity:1;stroke-width:0.708661;stroke-linecap:round;stroke-linejoin:round;stroke:rgb(100%,100%,100%);stroke-opacity:1;stroke-miterlimit:10;" d="M 115.5 383.039062 C 115.5 387.78125 108.386719 387.78125 108.386719 383.039062 C 108.386719 378.300781 115.5 378.300781 115.5 383.039062 "/>
<path style="fill-rule:nonzero;fill:rgb(100%,100%,100%);fill-opacity:1;stroke-width:0.708661;stroke-linecap:round;stroke-linejoin:round;stroke:rgb(100%,100%,100%);stroke-opacity:1;stroke-miterlimit:10;" d="M 202.292969 385.382812 C 202.292969 390.121094 195.179688 390.121094 195.179688 385.382812 C 195.179688 380.640625 202.292969 380.640625 202.292969 385.382812 "/>
<path style="fill-rule:nonzero;fill:rgb(100%,100%,100%);fill-opacity:1;stroke-width:0.708661;stroke-linecap:round;stroke-linejoin:round;stroke:rgb(100%,100%,100%);stroke-opacity:1;stroke-miterlimit:10;" d="M 51.582031 454.617188 C 51.582031 459.359375 44.472656 459.359375 44.472656 454.617188 C 44.472656 449.878906 51.582031 449.878906 51.582031 454.617188 "/>
<path style="fill-rule:nonzero;fill:rgb(100%,100%,100%);fill-opacity:1;stroke-width:0.708661;stroke-linecap:round;stroke-linejoin:round;stroke:rgb(100%,100%,100%);stroke-opacity:1;stroke-miterlimit:10;" d="M 96.660156 379.375 C 96.660156 384.113281 89.550781 384.113281 89.550781 379.375 C 89.550781 374.632812 96.660156 374.632812 96.660156 379.375 "/>
<path style="fill-rule:nonzero;fill:rgb(100%,100%,100%);fill-opacity:1;stroke-width:0.708661;stroke-linecap:round;stroke-linejoin:round;stroke:rgb(100%,100%,100%);stroke-opacity:1;stroke-miterlimit:10;" d="M 308.144531 308.507812 C 308.144531 313.25 301.035156 313.25 301.035156 308.507812 C 301.035156 303.769531 308.144531 303.769531 308.144531 308.507812 "/>
<path style="fill-rule:nonzero;fill:rgb(100%,100%,100%);fill-opacity:1;stroke-width:0.708661;stroke-linecap:round;stroke-linejoin:round;stroke:rgb(100%,100%,100%);stroke-opacity:1;stroke-miterlimit:10;" d="M 73.5625 426.921875 C 73.5625 431.664062 66.449219 431.664062 66.449219 426.921875 C 66.449219 422.183594 73.5625 422.183594 73.5625 426.921875 "/>
<path style="fill-rule:nonzero;fill:rgb(100%,100%,100%);fill-opacity:1;stroke-width:0.708661;stroke-linecap:round;stroke-linejoin:round;stroke:rgb(100%,100%,100%);stroke-opacity:1;stroke-miterlimit:10;" d="M 127.835938 376.21875 C 127.835938 380.957031 120.722656 380.957031 120.722656 376.21875 C 120.722656 371.476562 127.835938 371.476562 127.835938 376.21875 "/>
<path style="fill-rule:nonzero;fill:rgb(100%,100%,100%);fill-opacity:1;stroke-width:0.708661;stroke-linecap:round;stroke-linejoin:round;stroke:rgb(100%,100%,100%);stroke-opacity:1;stroke-miterlimit:10;" d="M 243.332031 414.910156 C 243.332031 419.648438 236.222656 419.648438 236.222656 414.910156 C 236.222656 410.167969 243.332031 410.167969 243.332031 414.910156 "/>
<path style="fill-rule:nonzero;fill:rgb(100%,100%,100%);fill-opacity:1;stroke-width:0.708661;stroke-linecap:round;stroke-linejoin:round;stroke:rgb(100%,100%,100%);stroke-opacity:1;stroke-miterlimit:10;" d="M 148.019531 425.089844 C 148.019531 429.832031 140.90625 429.832031 140.90625 425.089844 C 140.90625 420.351562 148.019531 420.351562 148.019531 425.089844 "/>
<path style="fill-rule:nonzero;fill:rgb(100%,100%,100%);fill-opacity:1;stroke-width:0.708661;stroke-linecap:round;stroke-linejoin:round;stroke:rgb(100%,100%,100%);stroke-opacity:1;stroke-miterlimit:10;" d="M 197.359375 372.144531 C 197.359375 376.886719 190.246094 376.886719 190.246094 372.144531 C 190.246094 367.40625 197.359375 367.40625 197.359375 372.144531 "/>
<path style="fill-rule:nonzero;fill:rgb(100%,100%,100%);fill-opacity:1;stroke-width:0.708661;stroke-linecap:round;stroke-linejoin:round;stroke:rgb(100%,100%,100%);stroke-opacity:1;stroke-miterlimit:10;" d="M 133.664062 383.34375 C 133.664062 388.085938 126.554688 388.085938 126.554688 383.34375 C 126.554688 378.605469 133.664062 378.605469 133.664062 383.34375 "/>
<path style="fill-rule:nonzero;fill:rgb(100%,100%,100%);fill-opacity:1;stroke-width:0.708661;stroke-linecap:round;stroke-linejoin:round;stroke:rgb(100%,100%,100%);stroke-opacity:1;stroke-miterlimit:10;" d="M 222.027344 235.769531 C 222.027344 240.507812 214.917969 240.507812 214.917969 235.769531 C 214.917969 231.027344 222.027344 231.027344 222.027344 235.769531 "/>
<path style="fill-rule:nonzero;fill:rgb(100%,100%,100%);fill-opacity:1;stroke-width:0.708661;stroke-linecap:round;stroke-linejoin:round;stroke:rgb(100%,100%,100%);stroke-opacity:1;stroke-miterlimit:10;" d="M 282.132812 335.492188 C 282.132812 340.230469 275.019531 340.230469 275.019531 335.492188 C 275.019531 330.75 282.132812 330.75 282.132812 335.492188 "/>
<path style="fill-rule:nonzero;fill:rgb(100%,100%,100%);fill-opacity:1;stroke-width:0.708661;stroke-linecap:round;stroke-linejoin:round;stroke:rgb(100%,100%,100%);stroke-opacity:1;stroke-miterlimit:10;" d="M 214.625 280.519531 C 214.625 285.257812 207.515625 285.257812 207.515625 280.519531 C 207.515625 275.777344 214.625 275.777344 214.625 280.519531 "/>
<path style="fill-rule:nonzero;fill:rgb(100%,100%,100%);fill-opacity:1;stroke-width:0.708661;stroke-linecap:round;stroke-linejoin:round;stroke:rgb(100%,100%,100%);stroke-opacity:1;stroke-miterlimit:10;" d="M 312.855469 291.710938 C 312.855469 296.449219 305.746094 296.449219 305.746094 291.710938 C 305.746094 286.96875 312.855469 286.96875 312.855469 291.710938 "/>
<path style="fill-rule:nonzero;fill:rgb(100%,100%,100%);fill-opacity:1;stroke-width:0.708661;stroke-linecap:round;stroke-linejoin:round;stroke:rgb(100%,100%,100%);stroke-opacity:1;stroke-miterlimit:10;" d="M 155.644531 361.71875 C 155.644531 366.460938 148.53125 366.460938 148.53125 361.71875 C 148.53125 356.980469 155.644531 356.980469 155.644531 361.71875 "/>
<path style="fill-rule:nonzero;fill:rgb(100%,100%,100%);fill-opacity:1;stroke-width:0.708661;stroke-linecap:round;stroke-linejoin:round;stroke:rgb(100%,100%,100%);stroke-opacity:1;stroke-miterlimit:10;" d="M 207.671875 393.019531 C 207.671875 397.757812 200.5625 397.757812 200.5625 393.019531 C 200.5625 388.277344 207.671875 388.277344 207.671875 393.019531 "/>
<path style="fill-rule:nonzero;fill:rgb(100%,100%,100%);fill-opacity:1;stroke-width:0.708661;stroke-linecap:round;stroke-linejoin:round;stroke:rgb(100%,100%,100%);stroke-opacity:1;stroke-miterlimit:10;" d="M 171.789062 379.273438 C 171.789062 384.011719 164.679688 384.011719 164.679688 379.273438 C 164.679688 374.53125 171.789062 374.53125 171.789062 379.273438 "/>
<path style="fill-rule:nonzero;fill:rgb(100%,100%,100%);fill-opacity:1;stroke-width:0.708661;stroke-linecap:round;stroke-linejoin:round;stroke:rgb(100%,100%,100%);stroke-opacity:1;stroke-miterlimit:10;" d="M 260.824219 389.453125 C 260.824219 394.195312 253.714844 394.195312 253.714844 389.453125 C 253.714844 384.714844 260.824219 384.714844 260.824219 389.453125 "/>
<path style="fill-rule:nonzero;fill:rgb(100%,100%,100%);fill-opacity:1;stroke-width:0.708661;stroke-linecap:round;stroke-linejoin:round;stroke:rgb(100%,100%,100%);stroke-opacity:1;stroke-miterlimit:10;" d="M 182.332031 410.835938 C 182.332031 415.578125 175.222656 415.578125 175.222656 410.835938 C 175.222656 406.097656 182.332031 406.097656 182.332031 410.835938 "/>
<path style="fill-rule:nonzero;fill:rgb(100%,100%,100%);fill-opacity:1;stroke-width:0.708661;stroke-linecap:round;stroke-linejoin:round;stroke:rgb(100%,100%,100%);stroke-opacity:1;stroke-miterlimit:10;" d="M 83.878906 417.453125 C 83.878906 422.195312 76.765625 422.195312 76.765625 417.453125 C 76.765625 412.714844 83.878906 412.714844 83.878906 417.453125 "/>
<path style="fill-rule:nonzero;fill:rgb(100%,100%,100%);fill-opacity:1;stroke-width:0.708661;stroke-linecap:round;stroke-linejoin:round;stroke:rgb(100%,100%,100%);stroke-opacity:1;stroke-miterlimit:10;" d="M 448.089844 44.21875 C 448.089844 48.960938 440.980469 48.960938 440.980469 44.21875 C 440.980469 39.480469 448.089844 39.480469 448.089844 44.21875 "/>
<path style="fill-rule:nonzero;fill:rgb(100%,100%,100%);fill-opacity:1;stroke-width:0.708661;stroke-linecap:round;stroke-linejoin:round;stroke:rgb(100%,100%,100%);stroke-opacity:1;stroke-miterlimit:10;" d="M 31.175781 478.546875 C 31.175781 483.285156 24.0625 483.285156 24.0625 478.546875 C 24.0625 473.804688 31.175781 473.804688 31.175781 478.546875 "/>
<path style="fill-rule:nonzero;fill:rgb(100%,100%,100%);fill-opacity:1;stroke-width:0.708661;stroke-linecap:round;stroke-linejoin:round;stroke:rgb(100%,100%,100%);stroke-opacity:1;stroke-miterlimit:10;" d="M 479.039062 155.273438 C 479.039062 160.011719 471.929688 160.011719 471.929688 155.273438 C 471.929688 150.53125 479.039062 150.53125 479.039062 155.273438 "/>
<path style="fill-rule:nonzero;fill:rgb(100%,100%,100%);fill-opacity:1;stroke-width:0.708661;stroke-linecap:round;stroke-linejoin:round;stroke:rgb(100%,100%,100%);stroke-opacity:1;stroke-miterlimit:10;" d="M 386.191406 48.363281 C 386.191406 53.105469 379.082031 53.105469 379.082031 48.363281 C 379.082031 43.625 386.191406 43.625 386.191406 48.363281 "/>
<path style="fill-rule:nonzero;fill:rgb(100%,100%,100%);fill-opacity:1;stroke-width:0.708661;stroke-linecap:round;stroke-linejoin:round;stroke:rgb(100%,100%,100%);stroke-opacity:1;stroke-miterlimit:10;" d="M 157.886719 356.363281 C 157.886719 361.105469 150.777344 361.105469 150.777344 356.363281 C 150.777344 351.625 157.886719 351.625 157.886719 356.363281 "/>
<path style="fill-rule:nonzero;fill:rgb(100%,100%,100%);fill-opacity:1;stroke-width:0.708661;stroke-linecap:round;stroke-linejoin:round;stroke:rgb(100%,100%,100%);stroke-opacity:1;stroke-miterlimit:10;" d="M 454.820312 203.636719 C 454.820312 208.375 447.707031 208.375 447.707031 203.636719 C 447.707031 198.894531 454.820312 198.894531 454.820312 203.636719 "/>
<path style="fill-rule:nonzero;fill:rgb(100%,100%,100%);fill-opacity:1;stroke-width:0.708661;stroke-linecap:round;stroke-linejoin:round;stroke:rgb(100%,100%,100%);stroke-opacity:1;stroke-miterlimit:10;" d="M 225.167969 377.238281 C 225.167969 381.976562 218.054688 381.976562 218.054688 377.238281 C 218.054688 372.496094 225.167969 372.496094 225.167969 377.238281 "/>
<path style="fill-rule:nonzero;fill:rgb(100%,100%,100%);fill-opacity:1;stroke-width:0.708661;stroke-linecap:round;stroke-linejoin:round;stroke:rgb(100%,100%,100%);stroke-opacity:1;stroke-miterlimit:10;" d="M 26.464844 422.035156 C 26.464844 426.777344 19.355469 426.777344 19.355469 422.035156 C 19.355469 417.296875 26.464844 417.296875 26.464844 422.035156 "/>
<path style="fill-rule:nonzero;fill:rgb(100%,100%,100%);fill-opacity:1;stroke-width:0.708661;stroke-linecap:round;stroke-linejoin:round;stroke:rgb(100%,100%,100%);stroke-opacity:1;stroke-miterlimit:10;" d="M 209.46875 361.964844 C 209.46875 366.703125 202.359375 366.703125 202.359375 361.964844 C 202.359375 357.222656 209.46875 357.222656 209.46875 361.964844 "/>
<path style="fill-rule:nonzero;fill:rgb(100%,100%,100%);fill-opacity:1;stroke-width:0.708661;stroke-linecap:round;stroke-linejoin:round;stroke:rgb(100%,100%,100%);stroke-opacity:1;stroke-miterlimit:10;" d="M 255.667969 219.417969 C 255.667969 224.160156 248.558594 224.160156 248.558594 219.417969 C 248.558594 214.679688 255.667969 214.679688 255.667969 219.417969 "/>
<path style="fill-rule:nonzero;fill:rgb(100%,100%,100%);fill-opacity:1;stroke-width:0.708661;stroke-linecap:round;stroke-linejoin:round;stroke:rgb(100%,100%,100%);stroke-opacity:1;stroke-miterlimit:10;" d="M 260.601562 393.628906 C 260.601562 398.371094 253.492188 398.371094 253.492188 393.628906 C 253.492188 388.890625 260.601562 388.890625 260.601562 393.628906 "/>
<path style="fill-rule:nonzero;fill:rgb(100%,100%,100%);fill-opacity:1;stroke-width:0.708661;stroke-linecap:round;stroke-linejoin:round;stroke:rgb(100%,100%,100%);stroke-opacity:1;stroke-miterlimit:10;" d="M 237.277344 206.285156 C 237.277344 211.023438 230.167969 211.023438 230.167969 206.285156 C 230.167969 201.542969 237.277344 201.542969 237.277344 206.285156 "/>
<path style="fill-rule:nonzero;fill:rgb(100%,100%,100%);fill-opacity:1;stroke-width:0.708661;stroke-linecap:round;stroke-linejoin:round;stroke:rgb(100%,100%,100%);stroke-opacity:1;stroke-miterlimit:10;" d="M 195.113281 374.183594 C 195.113281 378.921875 188.003906 378.921875 188.003906 374.183594 C 188.003906 369.441406 195.113281 369.441406 195.113281 374.183594 "/>
<path style="fill-rule:nonzero;fill:rgb(100%,100%,100%);fill-opacity:1;stroke-width:0.708661;stroke-linecap:round;stroke-linejoin:round;stroke:rgb(100%,100%,100%);stroke-opacity:1;stroke-miterlimit:10;" d="M 202.292969 344.65625 C 202.292969 349.394531 195.179688 349.394531 195.179688 344.65625 C 195.179688 339.914062 202.292969 339.914062 202.292969 344.65625 "/>
<path style="fill-rule:nonzero;fill:rgb(100%,100%,100%);fill-opacity:1;stroke-width:0.708661;stroke-linecap:round;stroke-linejoin:round;stroke:rgb(100%,100%,100%);stroke-opacity:1;stroke-miterlimit:10;" d="M 243.109375 336.507812 C 243.109375 341.25 235.996094 341.25 235.996094 336.507812 C 235.996094 331.769531 243.109375 331.769531 243.109375 336.507812 "/>
<path style="fill-rule:nonzero;fill:rgb(100%,100%,100%);fill-opacity:1;stroke-width:0.708661;stroke-linecap:round;stroke-linejoin:round;stroke:rgb(100%,100%,100%);stroke-opacity:1;stroke-miterlimit:10;" d="M 484.644531 226.75 C 484.644531 231.488281 477.535156 231.488281 477.535156 226.75 C 477.535156 222.007812 484.644531 222.007812 484.644531 226.75 "/>
<path style="fill-rule:nonzero;fill:rgb(100%,100%,100%);fill-opacity:1;stroke-width:0.708661;stroke-linecap:round;stroke-linejoin:round;stroke:rgb(100%,100%,100%);stroke-opacity:1;stroke-miterlimit:10;" d="M 248.714844 336 C 248.714844 340.742188 241.605469 340.742188 241.605469 336 C 241.605469 331.257812 248.714844 331.257812 248.714844 336 "/>
<path style="fill-rule:nonzero;fill:rgb(100%,100%,100%);fill-opacity:1;stroke-width:0.708661;stroke-linecap:round;stroke-linejoin:round;stroke:rgb(100%,100%,100%);stroke-opacity:1;stroke-miterlimit:10;" d="M 155.644531 436.800781 C 155.644531 441.539062 148.53125 441.539062 148.53125 436.800781 C 148.53125 432.058594 155.644531 432.058594 155.644531 436.800781 "/>
<path style="fill-rule:nonzero;fill:rgb(100%,100%,100%);fill-opacity:1;stroke-width:0.708661;stroke-linecap:round;stroke-linejoin:round;stroke:rgb(100%,100%,100%);stroke-opacity:1;stroke-miterlimit:10;" d="M 132.09375 391.492188 C 132.09375 396.230469 124.984375 396.230469 124.984375 391.492188 C 124.984375 386.75 132.09375 386.75 132.09375 391.492188 "/>
</g>
</svg>
